<?xml version="1.0" encoding="UTF-8" standalone="no"?>
<svg
   role="img"
   width="1000mm"
   height="1000mm"
   viewBox="0 0 1000 1000"
   style="max-width:1.6em; height: auto;"
   version="1.1"
   id="svg1"
   sodipodi:docname="fi-snsuxl-rumble.svg"
   inkscape:version="1.4 (e7c3feb, 2024-10-09)"
   xmlns:inkscape="http://www.inkscape.org/namespaces/inkscape"
   xmlns:sodipodi="http://sodipodi.sourceforge.net/DTD/sodipodi-0.dtd"
   xmlns="http://www.w3.org/2000/svg"
   xmlns:svg="http://www.w3.org/2000/svg">
  <defs
     id="defs1" />
  <sodipodi:namedview
     id="namedview1"
     pagecolor="#ffffff"
     bordercolor="#000000"
     borderopacity="0.25"
     inkscape:showpageshadow="2"
     inkscape:pageopacity="0.0"
     inkscape:pagecheckerboard="0"
     inkscape:deskcolor="#d1d1d1"
     inkscape:document-units="mm"
     inkscape:zoom="0.17727083"
     inkscape:cx="1889.7638"
     inkscape:cy="1889.7638"
     inkscape:window-width="1600"
     inkscape:window-height="915"
     inkscape:window-x="0"
     inkscape:window-y="0"
     inkscape:window-maximized="1"
     inkscape:current-layer="svg1" />
  <path
     id="path"
     style="opacity:1;vector-effect:none;fill:#ffffff;fill-opacity:1"
     d="m 76.492533,-3.2835842e-8 c 0,0 0,0 0,0 C 34.492533,-3.2835842e-8 1.4925334,33 1.4925334,75 c 0,0 0,850 0,850 0,42 32.9999996,75 74.9999996,75 0,0 849.999977,0 849.999977,0 42,0 74.99999,-33 74.99999,-75 0,0 0,-850 0,-850 C 1001.4925,33 968.49251,-3.2835798e-8 926.49251,-3.2835798e-8 c 0,0 -849.999977,0 -849.999977,0 M 649.49251,192 c 164,96 245,172 245,252 0,18 -5,38 -12,56 10,20 15,38 12,58 0,78 -83,156 -245,250 -160.99998,93 -266.99998,126 -337.99998,88 -20,-10 -35,-28 -47,-48 -23,0 -43,-5 -61,-15 -68,-41 -96,-149 -96,-338 3,-197 28,-305 99,-343 20,-12 45,-18 71,-15 10,-13 22,-26 37,-33 19,-10 40,-15 65,-15 66,0 155,36 269.99998,103 0,0 0,0 0,0 m -321.99998,48 c -114,63 -114,452 0,515 115,68 427.99998,-164 430.99998,-262 0,-114 -238.99998,-265 -375.99998,-265 -21,0 -40,4 -55,12 0,0 0,0 0,0 m 281.99998,252 c 0,51 -158.99998,167 -216.99998,134 -58,-30 -58,-224 0,-257 8,-4 18,-6 29,-6 69,1 187.99998,75 187.99998,129 0,0 0,0 0,0"
     inkscape:export-filename="fi-snsuxl-rumble.svg"
     inkscape:export-xdpi="96"
     inkscape:export-ydpi="96" />
</svg>
